<svg xmlns="http://www.w3.org/2000/svg" xmlns:xlink="http://www.w3.org/1999/xlink" width="400" zoomAndPan="magnify" viewBox="0 0 300 74.999997" height="100" preserveAspectRatio="xMidYMid meet" version="1.0"><defs><g/><clipPath id="903ba551cc"><path d="M 161.050781 21.980469 L 181 21.980469 L 181 44 L 161.050781 44 Z M 161.050781 21.980469 " clip-rule="nonzero"/></clipPath><clipPath id="3d8086942f"><path d="M 169 39 L 181 39 L 181 53.601562 L 169 53.601562 Z M 169 39 " clip-rule="nonzero"/></clipPath><clipPath id="468acca274"><path d="M 186 31 L 205.578125 31 L 205.578125 53.601562 L 186 53.601562 Z M 186 31 " clip-rule="nonzero"/></clipPath><clipPath id="fe09901954"><path d="M 186 21.980469 L 198 21.980469 L 198 36 L 186 36 Z M 186 21.980469 " clip-rule="nonzero"/></clipPath></defs><g clip-path="url(#903ba551cc)"><path fill="#03fa6e" d="M 161.050781 37.691406 L 180.265625 21.996094 L 180.265625 32.53125 L 172.320312 39.019531 L 169.703125 41.15625 C 168.992188 41.738281 168.582031 42.597656 168.582031 43.519531 C 168.582031 43.632812 168.589844 43.746094 168.601562 43.859375 Z M 161.050781 37.691406 " fill-opacity="1" fill-rule="nonzero"/></g><g clip-path="url(#3d8086942f)"><path fill="#00804b" d="M 170.253906 45.207031 C 169.742188 44.789062 169.453125 44.175781 169.453125 43.519531 C 169.453125 42.859375 169.742188 42.246094 170.253906 41.832031 L 172.59375 39.917969 L 180.265625 46.183594 L 180.265625 53.382812 Z M 170.253906 45.207031 " fill-opacity="1" fill-rule="nonzero"/></g><g clip-path="url(#468acca274)"><path fill="#03fa6e" d="M 186.324219 42.847656 L 194.269531 36.359375 L 196.886719 34.222656 C 197.597656 33.640625 198.003906 32.78125 198.003906 31.863281 C 198.003906 31.746094 198 31.632812 197.988281 31.523438 L 205.539062 37.691406 L 186.324219 53.382812 Z M 186.324219 42.847656 " fill-opacity="1" fill-rule="nonzero"/></g><g clip-path="url(#fe09901954)"><path fill="#00804b" d="M 186.324219 29.199219 L 186.324219 21.996094 L 196.335938 30.175781 C 196.84375 30.589844 197.136719 31.203125 197.136719 31.863281 C 197.136719 32.519531 196.84375 33.132812 196.335938 33.550781 L 193.992188 35.460938 Z M 186.324219 29.199219 " fill-opacity="1" fill-rule="nonzero"/></g><g fill="#ffffff" fill-opacity="1"><g transform="translate(21.510094, 47.249995)"><g><path d="M 12.921875 -15.0625 L 8.71875 -15.0625 L 8.71875 -16.6875 C 8.71875 -16.851562 8.660156 -17 8.546875 -17.125 C 8.429688 -17.25 8.289062 -17.3125 8.125 -17.3125 L 6.375 -17.3125 C 6.207031 -17.3125 6.066406 -17.25 5.953125 -17.125 C 5.835938 -17 5.78125 -16.851562 5.78125 -16.6875 L 5.78125 -13.046875 C 5.78125 -12.878906 5.835938 -12.734375 5.953125 -12.609375 C 6.066406 -12.484375 6.207031 -12.421875 6.375 -12.421875 L 9.21875 -12.421875 C 11.832031 -12.378906 13.140625 -10.988281 13.140625 -8.25 L 13.140625 -3.859375 C 13.140625 -1.078125 11.832031 0.3125 9.21875 0.3125 L 5.5 0.3125 C 2.882812 0.3125 1.578125 -1.078125 1.578125 -3.859375 L 1.578125 -5.96875 L 5.78125 -5.96875 L 5.78125 -3.703125 C 5.78125 -3.523438 5.835938 -3.375 5.953125 -3.25 C 6.066406 -3.125 6.207031 -3.0625 6.375 -3.0625 L 8.34375 -3.0625 C 8.507812 -3.0625 8.648438 -3.125 8.765625 -3.25 C 8.878906 -3.375 8.9375 -3.523438 8.9375 -3.703125 L 8.9375 -7.703125 C 8.9375 -7.878906 8.878906 -8.03125 8.765625 -8.15625 C 8.648438 -8.28125 8.507812 -8.34375 8.34375 -8.34375 L 5.5 -8.34375 C 2.882812 -8.34375 1.578125 -9.734375 1.578125 -12.515625 L 1.578125 -16.59375 C 1.578125 -19.363281 2.882812 -20.75 5.5 -20.75 L 9 -20.75 C 11.613281 -20.75 12.921875 -19.363281 12.921875 -16.59375 Z M 12.921875 -15.0625 "/></g></g></g><g fill="#ffffff" fill-opacity="1"><g transform="translate(39.298298, 47.249995)"><g><path d="M 12.828125 -11.5625 L 12.828125 -3.859375 C 12.828125 -1.078125 11.519531 0.3125 8.90625 0.3125 L 5.34375 0.3125 C 2.726562 0.3125 1.421875 -1.078125 1.421875 -3.859375 L 1.421875 -11.5625 C 1.421875 -14.34375 2.726562 -15.734375 5.34375 -15.734375 L 8.90625 -15.734375 C 11.519531 -15.734375 12.828125 -14.34375 12.828125 -11.5625 Z M 8.59375 -2.96875 L 8.59375 -12.484375 C 8.59375 -12.648438 8.535156 -12.796875 8.421875 -12.921875 C 8.304688 -13.046875 8.164062 -13.109375 8 -13.109375 L 6.25 -13.109375 C 6.082031 -13.109375 5.941406 -13.046875 5.828125 -12.921875 C 5.710938 -12.796875 5.65625 -12.648438 5.65625 -12.484375 L 5.65625 -2.96875 C 5.65625 -2.800781 5.710938 -2.65625 5.828125 -2.53125 C 5.941406 -2.40625 6.082031 -2.34375 6.25 -2.34375 L 8 -2.34375 C 8.164062 -2.34375 8.304688 -2.40625 8.421875 -2.53125 C 8.535156 -2.65625 8.59375 -2.800781 8.59375 -2.96875 Z M 8.59375 -2.96875 "/></g></g></g><g fill="#ffffff" fill-opacity="1"><g transform="translate(56.896942, 47.249995)"><g><path d="M 7.046875 -17.84375 C 6.578125 -17.84375 6.226562 -17.738281 6 -17.53125 C 5.769531 -17.320312 5.65625 -16.921875 5.65625 -16.328125 L 5.65625 -15.421875 L 8.3125 -15.421875 L 8.3125 -12.234375 L 5.65625 -12.234375 L 5.65625 0 L 1.421875 0 L 1.421875 -16.59375 C 1.421875 -19.363281 2.726562 -20.75 5.34375 -20.75 L 8.3125 -20.75 L 8.3125 -17.84375 Z M 7.046875 -17.84375 "/></g></g></g><g fill="#ffffff" fill-opacity="1"><g transform="translate(68.966684, 47.249995)"><g><path d="M 7.046875 -2.4375 L 8.3125 -2.4375 L 8.3125 0.3125 L 5.34375 0.3125 C 2.726562 0.3125 1.421875 -1.078125 1.421875 -3.859375 L 1.421875 -18.765625 L 5.65625 -18.765625 L 5.65625 -15.421875 L 8.3125 -15.421875 L 8.3125 -12.359375 L 5.65625 -12.359375 L 5.65625 -3.953125 C 5.65625 -3.359375 5.769531 -2.957031 6 -2.75 C 6.226562 -2.539062 6.578125 -2.4375 7.046875 -2.4375 Z M 7.046875 -2.4375 "/></g></g></g><g fill="#ffffff" fill-opacity="1"><g transform="translate(81.383958, 47.249995)"><g><path d="M 8.4375 -15.421875 L 12.484375 -15.421875 L 14.78125 -3.4375 L 16.59375 -15.421875 L 20.6875 -15.421875 L 17.3125 0 L 12.1875 0 L 10.453125 -9.515625 L 8.71875 0 L 3.609375 0 L 0.21875 -15.421875 L 4.328125 -15.421875 L 6.125 -3.4375 Z M 8.4375 -15.421875 "/></g></g></g><g fill="#ffffff" fill-opacity="1"><g transform="translate(105.617278, 47.249995)"><g><path d="M 9.25 -15.421875 L 12.828125 -15.421875 L 12.828125 0 L 9.25 0 L 9.25 -1.140625 C 8.601562 -0.171875 7.519531 0.3125 6 0.3125 L 5.34375 0.3125 C 2.726562 0.3125 1.421875 -1.078125 1.421875 -3.859375 L 1.421875 -11.5625 C 1.421875 -14.34375 2.726562 -15.734375 5.34375 -15.734375 L 6 -15.734375 C 7.519531 -15.734375 8.601562 -15.25 9.25 -14.28125 Z M 8.59375 -3.34375 L 8.59375 -12.0625 C 8.59375 -12.238281 8.535156 -12.390625 8.421875 -12.515625 C 8.304688 -12.640625 8.164062 -12.703125 8 -12.703125 L 6.25 -12.703125 C 6.082031 -12.703125 5.941406 -12.640625 5.828125 -12.515625 C 5.710938 -12.390625 5.65625 -12.238281 5.65625 -12.0625 L 5.65625 -3.34375 C 5.65625 -3.175781 5.710938 -3.03125 5.828125 -2.90625 C 5.941406 -2.78125 6.082031 -2.71875 6.25 -2.71875 L 8 -2.71875 C 8.164062 -2.71875 8.304688 -2.78125 8.421875 -2.90625 C 8.535156 -3.03125 8.59375 -3.175781 8.59375 -3.34375 Z M 8.59375 -3.34375 "/></g></g></g><g fill="#ffffff" fill-opacity="1"><g transform="translate(123.215927, 47.249995)"><g><path d="M 8 -15.734375 L 8.8125 -15.734375 L 8.8125 -11.625 L 6.734375 -11.625 C 6.015625 -11.625 5.65625 -11.253906 5.65625 -10.515625 L 5.65625 0 L 1.421875 0 L 1.421875 -15.421875 L 5.28125 -15.421875 L 5.28125 -13.9375 C 5.882812 -15.132812 6.789062 -15.734375 8 -15.734375 Z M 8 -15.734375 "/></g></g></g><g fill="#ffffff" fill-opacity="1"><g transform="translate(135.82276, 47.249995)"><g><path d="M 8.90625 -15.734375 C 11.519531 -15.734375 12.828125 -14.34375 12.828125 -11.5625 L 12.828125 -6.578125 L 5.65625 -6.578125 L 5.65625 -3.34375 C 5.65625 -3.175781 5.710938 -3.03125 5.828125 -2.90625 C 5.941406 -2.78125 6.082031 -2.71875 6.25 -2.71875 L 8 -2.71875 C 8.164062 -2.71875 8.304688 -2.78125 8.421875 -2.90625 C 8.535156 -3.03125 8.59375 -3.175781 8.59375 -3.34375 L 8.59375 -5.0625 L 12.828125 -5.0625 L 12.828125 -3.859375 C 12.828125 -1.078125 11.519531 0.3125 8.90625 0.3125 L 5.34375 0.3125 C 2.726562 0.3125 1.421875 -1.078125 1.421875 -3.859375 L 1.421875 -11.5625 C 1.421875 -14.34375 2.726562 -15.734375 5.34375 -15.734375 Z M 5.65625 -9.359375 L 8.59375 -9.359375 L 8.59375 -12.1875 C 8.59375 -12.363281 8.535156 -12.515625 8.421875 -12.640625 C 8.304688 -12.765625 8.164062 -12.828125 8 -12.828125 L 6.25 -12.828125 C 6.082031 -12.828125 5.941406 -12.765625 5.828125 -12.640625 C 5.710938 -12.515625 5.65625 -12.363281 5.65625 -12.1875 Z M 5.65625 -9.359375 "/></g></g></g><g fill="#ffffff" fill-opacity="1"><g transform="translate(213.584827, 47.249995)"><g><path d="M 6 -8.03125 L 6 0 L 1.578125 0 L 1.578125 -20.4375 L 10.8125 -20.4375 L 10.8125 -16.625 L 6 -16.625 L 6 -11.71875 L 10.484375 -11.71875 L 10.484375 -8.03125 Z M 6 -8.03125 "/></g></g></g><g fill="#ffffff" fill-opacity="1"><g transform="translate(228.719159, 47.249995)"><g><path d="M 9.25 -15.421875 L 12.828125 -15.421875 L 12.828125 0 L 9.25 0 L 9.25 -1.140625 C 8.601562 -0.171875 7.519531 0.3125 6 0.3125 L 5.34375 0.3125 C 2.726562 0.3125 1.421875 -1.078125 1.421875 -3.859375 L 1.421875 -11.5625 C 1.421875 -14.34375 2.726562 -15.734375 5.34375 -15.734375 L 6 -15.734375 C 7.519531 -15.734375 8.601562 -15.25 9.25 -14.28125 Z M 8.59375 -3.34375 L 8.59375 -12.0625 C 8.59375 -12.238281 8.535156 -12.390625 8.421875 -12.515625 C 8.304688 -12.640625 8.164062 -12.703125 8 -12.703125 L 6.25 -12.703125 C 6.082031 -12.703125 5.941406 -12.640625 5.828125 -12.515625 C 5.710938 -12.390625 5.65625 -12.238281 5.65625 -12.0625 L 5.65625 -3.34375 C 5.65625 -3.175781 5.710938 -3.03125 5.828125 -2.90625 C 5.941406 -2.78125 6.082031 -2.71875 6.25 -2.71875 L 8 -2.71875 C 8.164062 -2.71875 8.304688 -2.78125 8.421875 -2.90625 C 8.535156 -3.03125 8.59375 -3.175781 8.59375 -3.34375 Z M 11.46875 -20.4375 L 7.328125 -17.21875 L 4.203125 -17.21875 L 6.828125 -20.4375 Z M 11.46875 -20.4375 "/></g></g></g><g fill="#ffffff" fill-opacity="1"><g transform="translate(246.317803, 47.249995)"><g><path d="M 12.828125 -9.359375 L 8.59375 -9.359375 L 8.59375 -12.0625 C 8.59375 -12.238281 8.535156 -12.390625 8.421875 -12.515625 C 8.304688 -12.640625 8.164062 -12.703125 8 -12.703125 L 6.25 -12.703125 C 6.082031 -12.703125 5.941406 -12.640625 5.828125 -12.515625 C 5.710938 -12.390625 5.65625 -12.238281 5.65625 -12.0625 L 5.65625 -3.34375 C 5.65625 -3.175781 5.710938 -3.03125 5.828125 -2.90625 C 5.941406 -2.78125 6.082031 -2.71875 6.25 -2.71875 L 8 -2.71875 C 8.164062 -2.71875 8.304688 -2.78125 8.421875 -2.90625 C 8.535156 -3.03125 8.59375 -3.175781 8.59375 -3.34375 L 8.59375 -6.0625 L 12.828125 -6.0625 L 12.828125 -3.859375 C 12.828125 -1.078125 11.519531 0.3125 8.90625 0.3125 L 5.34375 0.3125 C 2.726562 0.3125 1.421875 -1.078125 1.421875 -3.859375 L 1.421875 -11.5625 C 1.421875 -14.34375 2.726562 -15.734375 5.34375 -15.734375 L 8.90625 -15.734375 C 11.519531 -15.734375 12.828125 -14.34375 12.828125 -11.5625 Z M 12.828125 -9.359375 "/></g></g></g><g fill="#ffffff" fill-opacity="1"><g transform="translate(263.726888, 47.249995)"><g><path d="M 5.734375 -17.34375 C 5.285156 -16.90625 4.742188 -16.6875 4.109375 -16.6875 C 3.472656 -16.6875 2.921875 -16.910156 2.453125 -17.359375 C 1.992188 -17.816406 1.765625 -18.363281 1.765625 -19 C 1.765625 -19.644531 1.992188 -20.191406 2.453125 -20.640625 C 2.921875 -21.097656 3.472656 -21.328125 4.109375 -21.328125 C 4.742188 -21.328125 5.285156 -21.097656 5.734375 -20.640625 C 6.179688 -20.191406 6.40625 -19.640625 6.40625 -18.984375 C 6.40625 -18.335938 6.179688 -17.789062 5.734375 -17.34375 Z M 1.984375 0 L 1.984375 -15.421875 L 6.21875 -15.421875 L 6.21875 0 Z M 1.984375 0 "/></g></g></g><g fill="#ffffff" fill-opacity="1"><g transform="translate(274.81722, 47.249995)"><g><path d="M 5.65625 0 L 1.421875 0 L 1.421875 -20.4375 L 5.65625 -20.4375 Z M 5.65625 0 "/></g></g></g></svg>